# xmcd CD database file
#
# Track frame offsets:
#	150
#	9473
#	39672
#	57170
#	93476
#	122798
#	163783
#	197313
#	231801
#	259114
#	284932
#	310294
#
# Disc length: 4468 seconds
#
# Revision: 0
# Processed by: cddbd v1.4PL0 Copyright (c) Steve Scherf et al.
# Submitted via: CDex 1.50
#
DISCID=a711720c
DTITLE=Paul Hanmer - Playola
DYEAR=2000
DGENRE=Jazz
TTITLE0=Adrian's Chord
TTITLE1=Adrian's Chord
TTITLE2=Zondwa Stomp
TTITLE3=Margeret Matheson
TTITLE4=Kwaito Right
TTITLE5=Palyola
TTITLE6=Oulap'salms
TTITLE7=Barcarolle
TTITLE8=A Brand New Waltz
TTITLE9=Amie
TTITLE10=12/12/88
TTITLE11=The Loss
EXTD=YEAR: 2000
EXTT0=
EXTT1=
EXTT2=
EXTT3=
EXTT4=
EXTT5=
EXTT6=
EXTT7=
EXTT8=
EXTT9=
EXTT10=
EXTT11=
PLAYORDER=
